<svg version="1.1" id="Layer_1" xmlns="http://www.w3.org/2000/svg" xmlns:xlink="http://www.w3.org/1999/xlink" x="0px" y="0px"
	 width="100%" viewBox="0 0 2048 2048" enable-background="new 0 0 2048 2048" xml:space="preserve">
<path fill="#000000" opacity="1.000000" stroke="none" 
	d="
M1160.000000,2049.000000 
	C773.333313,2049.000000 387.166656,2049.000000 1.000000,2049.000000 
	C1.000000,1366.333374 1.000000,683.666687 1.000000,1.000000 
	C683.666687,1.000000 1366.333374,1.000000 2049.000000,1.000000 
	C2049.000000,683.666687 2049.000000,1366.333374 2049.000000,2049.000000 
	C1752.833374,2049.000000 1456.666626,2049.000000 1160.000000,2049.000000 
M1635.566895,154.919556 
	C1628.336304,153.946762 1621.122192,152.316437 1613.871704,152.133881 
	C1597.215820,151.714554 1580.536987,151.743866 1563.877319,152.078003 
	C1549.537964,152.365585 1535.212158,153.327667 1520.880249,153.988510 
	C1520.547852,154.003845 1520.208252,153.942444 1519.881348,153.986084 
	C1509.900391,155.318329 1499.915649,156.623505 1489.942261,158.010117 
	C1481.894531,159.129028 1473.820435,160.127472 1465.831421,161.582199 
	C1457.277954,163.139755 1448.836304,165.303818 1440.298584,166.958588 
	C1429.047852,169.139130 1417.621094,170.550598 1406.508667,173.268707 
	C1394.318359,176.250504 1382.175049,179.735931 1370.412354,184.086075 
	C1350.332153,191.512192 1330.608521,199.896011 1310.654297,207.670227 
	C1289.965698,215.730560 1270.123291,225.569305 1250.141235,235.196671 
	C1224.395996,247.600662 1200.855835,263.489807 1177.033325,278.983368 
	C1160.930542,289.456238 1145.544678,300.862213 1131.890015,314.501495 
	C1127.258545,319.127777 1121.968140,323.088226 1117.063721,327.448425 
	C1104.653564,338.481537 1091.861084,349.133575 1080.070923,360.796722 
	C1072.938232,367.852600 1067.192261,376.363434 1061.174561,384.481018 
	C1051.515991,397.509674 1042.145752,410.752075 1032.660156,423.908691 
	C1030.162231,427.373291 1027.687500,430.854523 1024.896606,434.754852 
	C1013.587463,418.951996 1002.793518,403.798920 991.918396,388.704346 
	C986.976135,381.844391 982.409119,374.606384 976.712585,368.423798 
	C968.939148,359.987030 960.429199,352.195953 951.912537,344.484100 
	C937.538147,331.468079 922.714233,318.944946 908.449463,305.812500 
	C896.114807,294.457001 882.389648,285.029877 868.454102,275.922180 
	C852.208435,265.304718 835.863831,254.764496 818.981384,245.217743 
	C803.875061,236.675339 788.098572,229.276688 772.392578,221.849747 
	C760.900818,216.415619 749.097168,211.624222 737.337036,206.778275 
	C720.222961,199.726135 703.142029,192.563995 685.811096,186.079453 
	C676.606506,182.635437 666.926147,180.442200 657.420837,177.829056 
	C648.745789,175.444199 640.065063,173.045074 631.297791,171.041687 
	C623.594849,169.281540 615.752686,168.139938 608.001526,166.578918 
	C600.899841,165.148682 593.890015,163.193344 586.746216,162.056686 
	C574.556396,160.117157 562.319885,158.403122 550.054871,157.021469 
	C533.334473,155.137924 516.600464,153.041992 499.813629,152.177307 
	C483.856232,151.355331 467.801514,152.523315 451.829224,151.860825 
	C433.936615,151.118683 416.488342,154.261978 399.127502,157.269791 
	C379.641144,160.645844 360.401459,165.598663 341.213348,170.488968 
	C328.461151,173.738968 315.945892,177.952286 303.404175,181.982254 
	C295.172333,184.627380 286.751190,187.025574 279.000732,190.752762 
	C264.588348,197.683640 250.487198,205.292587 236.473343,213.012894 
	C221.687164,221.158691 206.593430,228.938843 192.668137,238.400589 
	C178.687805,247.899750 165.589050,258.825928 152.850296,269.979126 
	C143.727158,277.966736 135.757553,287.287354 127.420540,296.151703 
	C122.269272,301.628845 116.899544,307.006042 112.497238,313.060272 
	C103.105751,325.975769 93.854889,339.035126 85.353912,352.543701 
	C78.236374,363.853882 71.867104,375.687103 65.901291,387.654999 
	C60.099102,399.294678 55.123253,411.353729 49.992653,423.317871 
	C46.907383,430.512512 43.699944,437.723602 41.481682,445.204315 
	C38.515633,455.206757 36.182987,465.421814 34.080746,475.648865 
	C31.863832,486.433807 30.048548,497.311615 28.402803,508.201019 
	C26.412630,521.369446 24.657640,534.577209 23.059189,547.799194 
	C22.369286,553.505920 22.440828,559.300293 21.968924,565.038574 
	C20.694668,580.533447 19.006922,596.001038 18.070681,611.514893 
	C17.282331,624.578064 17.372885,637.692749 16.963533,650.781128 
	C16.798862,656.046265 16.330406,661.301575 16.014841,666.562256 
	C15.649612,672.650940 14.879362,678.752930 15.056178,684.826660 
	C15.255402,691.669922 16.705284,698.476440 16.910458,705.319946 
	C17.249861,716.640869 16.536505,728.005920 17.164602,739.302429 
	C17.982264,754.008179 19.651278,768.667542 21.005173,783.342163 
	C21.681520,790.672974 22.322685,798.012085 23.244591,805.314026 
	C24.712708,816.942261 26.392288,828.543823 28.001026,840.154114 
	C29.405039,850.286926 30.071547,860.598022 32.431522,870.504456 
	C35.990547,885.444214 40.032028,900.351868 45.167366,914.811829 
	C51.246769,931.930176 55.988167,949.460938 63.708744,966.113037 
	C77.119873,995.038757 88.503143,1024.898804 101.598923,1053.978882 
	C109.212090,1070.884521 117.913322,1087.375122 127.187584,1103.439087 
	C139.278763,1124.382080 152.748398,1144.525391 165.031281,1165.362671 
	C180.040802,1190.825562 198.140579,1214.087036 215.494858,1237.883667 
	C219.449371,1243.306152 224.607208,1247.848755 228.586609,1253.255859 
	C240.502319,1269.446777 253.526855,1284.627808 268.036957,1298.545776 
	C278.461945,1308.545288 288.903076,1318.531982 299.137634,1328.724609 
	C306.646820,1336.203003 313.453156,1344.420776 321.255005,1351.563721 
	C331.987213,1361.389526 343.479950,1370.379028 354.426849,1379.977539 
	C362.988586,1387.484985 371.199371,1395.391724 379.594849,1403.089722 
	C395.502625,1417.675903 411.404999,1432.268066 427.358765,1446.803833 
	C441.581818,1459.762451 455.848724,1472.673218 470.138062,1485.558838 
	C482.598969,1496.795532 495.068390,1508.023804 507.633911,1519.142944 
	C513.397888,1524.243530 519.264404,1529.248779 525.327576,1533.985962 
	C535.152954,1541.662842 545.211731,1549.040161 555.110291,1556.624268 
	C565.273804,1564.411621 575.293701,1572.387451 585.504822,1580.111084 
	C595.820312,1587.913574 606.374512,1595.400879 616.677124,1603.219971 
	C631.164673,1614.215332 645.426697,1625.508789 659.956177,1636.447754 
	C670.856873,1644.654541 682.148010,1652.343140 693.041077,1660.559692 
	C702.660156,1667.815063 711.792603,1675.720703 721.482483,1682.875488 
	C727.140198,1687.052856 733.693970,1690.003662 739.443665,1694.072876 
	C747.502502,1699.776245 755.074646,1706.162842 763.057129,1711.979614 
	C778.933594,1723.548340 794.868286,1735.040771 810.926941,1746.354736 
	C827.992676,1758.378540 845.369385,1769.963501 862.354065,1782.098755 
	C880.296570,1794.917969 897.996643,1808.079468 915.692078,1821.240112 
	C933.286072,1834.324951 950.729065,1847.612549 968.265991,1860.774292 
	C975.098694,1865.902344 982.019470,1870.912598 988.877747,1876.006592 
	C997.418762,1882.350342 1006.185974,1888.423950 1014.373718,1895.196655 
	C1019.512390,1899.447021 1029.333496,1900.542114 1034.462280,1896.445801 
	C1044.935181,1888.081177 1055.256958,1879.502808 1066.053223,1871.573608 
	C1079.035645,1862.038574 1092.662598,1853.379028 1105.616211,1843.806763 
	C1120.526978,1832.788330 1134.956909,1821.121338 1149.690186,1809.859619 
	C1160.156250,1801.859863 1170.606323,1793.818848 1181.384888,1786.254150 
	C1190.489624,1779.864014 1200.315918,1774.496216 1209.368164,1768.038818 
	C1232.822021,1751.307617 1256.062866,1734.276733 1279.310791,1717.259033 
	C1290.021240,1709.418701 1299.982788,1700.381226 1311.314087,1693.610840 
	C1323.349121,1686.419678 1334.282471,1678.033936 1345.293091,1669.494629 
	C1362.090210,1656.467529 1379.594727,1644.354492 1396.743652,1631.778076 
	C1404.858276,1625.827393 1412.880493,1619.748657 1420.881348,1613.645020 
	C1432.088135,1605.095459 1443.209961,1596.434204 1454.417358,1587.885254 
	C1462.784058,1581.503418 1471.291992,1575.306030 1479.622437,1568.877808 
	C1490.298096,1560.640015 1500.926025,1552.337158 1511.450562,1543.907471 
	C1522.656616,1534.932251 1533.860107,1525.943237 1544.795410,1516.643433 
	C1552.700806,1509.920654 1560.017822,1502.509277 1567.860962,1495.708984 
	C1581.087280,1484.241455 1594.714844,1473.232300 1607.820557,1461.631470 
	C1623.353149,1447.882690 1638.588989,1433.794922 1653.808105,1419.697266 
	C1666.442505,1407.993774 1678.878052,1396.075073 1691.373169,1384.221558 
	C1693.667236,1382.045288 1695.695435,1379.577393 1698.068115,1377.497070 
	C1710.639893,1366.475708 1723.391724,1355.656982 1735.841309,1344.500610 
	C1740.248047,1340.551758 1743.780396,1335.642700 1748.053955,1331.527222 
	C1760.703125,1319.345703 1774.099121,1307.883789 1786.115723,1295.116821 
	C1798.429321,1282.034180 1809.486938,1267.766357 1821.036743,1253.968994 
	C1826.488525,1247.456055 1832.070312,1241.026978 1837.129883,1234.215820 
	C1848.729858,1218.600098 1860.328125,1202.968140 1871.372192,1186.959961 
	C1878.158936,1177.122681 1883.927368,1166.582520 1890.142456,1156.351562 
	C1901.760620,1137.226562 1913.778076,1118.328979 1924.863403,1098.899780 
	C1934.779907,1081.519165 1944.292236,1063.939087 1951.579956,1045.121704 
	C1959.542358,1024.561768 1969.319946,1004.710266 1978.073975,984.449646 
	C1984.236084,970.187927 1990.668823,955.989136 1995.796143,941.347412 
	C2002.662598,921.738892 2008.907349,901.873047 2014.407837,881.840027 
	C2017.897949,869.129089 2019.855103,855.961365 2021.912354,842.906006 
	C2023.185547,834.825500 2023.019165,826.526489 2024.096802,818.404907 
	C2026.171021,802.771545 2029.268555,787.253784 2030.819214,771.577026 
	C2032.295532,756.652466 2032.400635,741.588745 2032.994263,726.581665 
	C2033.432739,715.496521 2033.635132,704.402222 2034.051025,693.315979 
	C2034.216431,688.906555 2035.079712,684.493286 2034.919922,680.107422 
	C2034.483276,668.115662 2033.563843,656.142334 2033.039795,644.152710 
	C2032.562500,633.234802 2032.405640,622.303223 2032.004028,611.381470 
	C2031.792847,605.643250 2031.493408,599.901672 2031.000732,594.181702 
	C2029.736328,579.504578 2028.344238,564.838501 2026.998169,550.168457 
	C2026.011597,539.417358 2025.421265,528.609802 2023.911011,517.932556 
	C2022.442261,507.548492 2020.000610,497.303345 2018.035522,486.987762 
	C2016.312622,477.943420 2015.164917,468.752808 2012.829590,459.872314 
	C2010.557617,451.232361 2007.352051,442.806183 2004.105347,434.461670 
	C1999.059692,421.492950 1994.558350,408.189911 1988.150024,395.902802 
	C1978.466309,377.335724 1967.208618,359.595703 1956.862061,341.366669 
	C1944.927368,320.339844 1928.629883,302.770996 1912.531250,285.071503 
	C1906.487915,278.427277 1899.839233,272.236145 1892.903320,266.522125 
	C1879.849976,255.768402 1867.086548,244.424866 1852.925171,235.311783 
	C1833.469971,222.791977 1812.986938,211.824173 1792.645508,200.739853 
	C1774.195312,190.686096 1754.272949,183.873260 1734.374512,177.485886 
	C1717.907227,172.199982 1700.786621,168.896927 1683.878906,165.051422 
	C1668.124146,161.468124 1652.268433,158.328110 1635.566895,154.919556 
z"/>
<path fill="#83DEF7" opacity="1.000000" stroke="none" 
	d="
M1636.011963,154.956253 
	C1652.268433,158.328110 1668.124146,161.468124 1683.878906,165.051422 
	C1700.786621,168.896927 1717.907227,172.199982 1734.374512,177.485886 
	C1754.272949,183.873260 1774.195312,190.686096 1792.645508,200.739853 
	C1812.986938,211.824173 1833.469971,222.791977 1852.925171,235.311783 
	C1867.086548,244.424866 1879.849976,255.768402 1892.903320,266.522125 
	C1899.839233,272.236145 1906.487915,278.427277 1912.531250,285.071503 
	C1928.629883,302.770996 1944.927368,320.339844 1956.862061,341.366669 
	C1967.208618,359.595703 1978.466309,377.335724 1988.150024,395.902802 
	C1994.558350,408.189911 1999.059692,421.492950 2004.105347,434.461670 
	C2007.352051,442.806183 2010.557617,451.232361 2012.829590,459.872314 
	C2015.164917,468.752808 2016.312622,477.943420 2018.035522,486.987762 
	C2020.000610,497.303345 2022.442261,507.548492 2023.911011,517.932556 
	C2025.421265,528.609802 2026.011597,539.417358 2026.998169,550.168457 
	C2028.344238,564.838501 2029.736328,579.504578 2031.000732,594.181702 
	C2031.493408,599.901672 2031.792847,605.643250 2032.004028,611.381470 
	C2032.405640,622.303223 2032.562500,633.234802 2033.039795,644.152710 
	C2033.563843,656.142334 2034.483276,668.115662 2034.919922,680.107422 
	C2035.079712,684.493286 2034.216431,688.906555 2034.051025,693.315979 
	C2033.635132,704.402222 2033.432739,715.496521 2032.994263,726.581665 
	C2032.400635,741.588745 2032.295532,756.652466 2030.819214,771.577026 
	C2029.268555,787.253784 2026.171021,802.771545 2024.096802,818.404907 
	C2023.019165,826.526489 2023.185547,834.825500 2021.912354,842.906006 
	C2019.855103,855.961365 2017.897949,869.129089 2014.407837,881.840027 
	C2008.907349,901.873047 2002.662598,921.738892 1995.796143,941.347412 
	C1990.668823,955.989136 1984.236084,970.187927 1978.073975,984.449646 
	C1969.319946,1004.710266 1959.542358,1024.561768 1951.579956,1045.121704 
	C1944.292236,1063.939087 1934.779907,1081.519165 1924.863403,1098.899780 
	C1913.778076,1118.328979 1901.760620,1137.226562 1890.142456,1156.351562 
	C1883.927368,1166.582520 1878.158936,1177.122681 1871.372192,1186.959961 
	C1860.328125,1202.968140 1848.729858,1218.600098 1837.129883,1234.215820 
	C1832.070312,1241.026978 1826.488525,1247.456055 1821.036743,1253.968994 
	C1809.486938,1267.766357 1798.429321,1282.034180 1786.115723,1295.116821 
	C1774.099121,1307.883789 1760.703125,1319.345703 1748.053955,1331.527222 
	C1743.780396,1335.642700 1740.248047,1340.551758 1735.841309,1344.500610 
	C1723.391724,1355.656982 1710.639893,1366.475708 1698.068115,1377.497070 
	C1695.695435,1379.577393 1693.667236,1382.045288 1691.373169,1384.221558 
	C1678.878052,1396.075073 1666.442505,1407.993774 1653.808105,1419.697266 
	C1638.588989,1433.794922 1623.353149,1447.882690 1607.820557,1461.631470 
	C1594.714844,1473.232300 1581.087280,1484.241455 1567.860962,1495.708984 
	C1560.017822,1502.509277 1552.700806,1509.920654 1544.795410,1516.643433 
	C1533.860107,1525.943237 1522.656616,1534.932251 1511.450562,1543.907471 
	C1500.926025,1552.337158 1490.298096,1560.640015 1479.622437,1568.877808 
	C1471.291992,1575.306030 1462.784058,1581.503418 1454.417358,1587.885254 
	C1443.209961,1596.434204 1432.088135,1605.095459 1420.881348,1613.645020 
	C1412.880493,1619.748657 1404.858276,1625.827393 1396.743652,1631.778076 
	C1379.594727,1644.354492 1362.090210,1656.467529 1345.293091,1669.494629 
	C1334.282471,1678.033936 1323.349121,1686.419678 1311.314087,1693.610840 
	C1299.982788,1700.381226 1290.021240,1709.418701 1279.310791,1717.259033 
	C1256.062866,1734.276733 1232.822021,1751.307617 1209.368164,1768.038818 
	C1200.315918,1774.496216 1190.489624,1779.864014 1181.384888,1786.254150 
	C1170.606323,1793.818848 1160.156250,1801.859863 1149.690186,1809.859619 
	C1134.956909,1821.121338 1120.526978,1832.788330 1105.616211,1843.806763 
	C1092.662598,1853.379028 1079.035645,1862.038574 1066.053223,1871.573608 
	C1055.256958,1879.502808 1044.935181,1888.081177 1034.462280,1896.445801 
	C1029.333496,1900.542114 1019.512390,1899.447021 1014.373718,1895.196655 
	C1006.185974,1888.423950 997.418762,1882.350342 988.877747,1876.006592 
	C982.019470,1870.912598 975.098694,1865.902344 968.265991,1860.774292 
	C950.729065,1847.612549 933.286072,1834.324951 915.692078,1821.240112 
	C897.996643,1808.079468 880.296570,1794.917969 862.354065,1782.098755 
	C845.369385,1769.963501 827.992676,1758.378540 810.926941,1746.354736 
	C794.868286,1735.040771 778.933594,1723.548340 763.057129,1711.979614 
	C755.074646,1706.162842 747.502502,1699.776245 739.443665,1694.072876 
	C733.693970,1690.003662 727.140198,1687.052856 721.482483,1682.875488 
	C711.792603,1675.720703 702.660156,1667.815063 693.041077,1660.559692 
	C682.148010,1652.343140 670.856873,1644.654541 659.956177,1636.447754 
	C645.426697,1625.508789 631.164673,1614.215332 616.677124,1603.219971 
	C606.374512,1595.400879 595.820312,1587.913574 585.504822,1580.111084 
	C575.293701,1572.387451 565.273804,1564.411621 555.110291,1556.624268 
	C545.211731,1549.040161 535.152954,1541.662842 525.327576,1533.985962 
	C519.264404,1529.248779 513.397888,1524.243530 507.633911,1519.142944 
	C495.068390,1508.023804 482.598969,1496.795532 470.138062,1485.558838 
	C455.848724,1472.673218 441.581818,1459.762451 427.358765,1446.803833 
	C411.404999,1432.268066 395.502625,1417.675903 379.594849,1403.089722 
	C371.199371,1395.391724 362.988586,1387.484985 354.426849,1379.977539 
	C343.479950,1370.379028 331.987213,1361.389526 321.255005,1351.563721 
	C313.453156,1344.420776 306.646820,1336.203003 299.137634,1328.724609 
	C288.903076,1318.531982 278.461945,1308.545288 268.036957,1298.545776 
	C253.526855,1284.627808 240.502319,1269.446777 228.586609,1253.255859 
	C224.607208,1247.848755 219.449371,1243.306152 215.494858,1237.883667 
	C198.140579,1214.087036 180.040802,1190.825562 165.031281,1165.362671 
	C152.748398,1144.525391 139.278763,1124.382080 127.187584,1103.439087 
	C117.913322,1087.375122 109.212090,1070.884521 101.598923,1053.978882 
	C88.503143,1024.898804 77.119873,995.038757 63.708744,966.113037 
	C55.988167,949.460938 51.246769,931.930176 45.167366,914.811829 
	C40.032028,900.351868 35.990547,885.444214 32.431522,870.504456 
	C30.071547,860.598022 29.405039,850.286926 28.001026,840.154114 
	C26.392288,828.543823 24.712708,816.942261 23.244591,805.314026 
	C22.322685,798.012085 21.681520,790.672974 21.005173,783.342163 
	C19.651278,768.667542 17.982264,754.008179 17.164602,739.302429 
	C16.536505,728.005920 17.249861,716.640869 16.910458,705.319946 
	C16.705284,698.476440 15.255402,691.669922 15.056178,684.826660 
	C14.879362,678.752930 15.649612,672.650940 16.014841,666.562256 
	C16.330406,661.301575 16.798862,656.046265 16.963533,650.781128 
	C17.372885,637.692749 17.282331,624.578064 18.070681,611.514893 
	C19.006922,596.001038 20.694668,580.533447 21.968924,565.038574 
	C22.440828,559.300293 22.369286,553.505920 23.059189,547.799194 
	C24.657640,534.577209 26.412630,521.369446 28.402803,508.201019 
	C30.048548,497.311615 31.863832,486.433807 34.080746,475.648865 
	C36.182987,465.421814 38.515633,455.206757 41.481682,445.204315 
	C43.699944,437.723602 46.907383,430.512512 49.992653,423.317871 
	C55.123253,411.353729 60.099102,399.294678 65.901291,387.654999 
	C71.867104,375.687103 78.236374,363.853882 85.353912,352.543701 
	C93.854889,339.035126 103.105751,325.975769 112.497238,313.060272 
	C116.899544,307.006042 122.269272,301.628845 127.420540,296.151703 
	C135.757553,287.287354 143.727158,277.966736 152.850296,269.979126 
	C165.589050,258.825928 178.687805,247.899750 192.668137,238.400589 
	C206.593430,228.938843 221.687164,221.158691 236.473343,213.012894 
	C250.487198,205.292587 264.588348,197.683640 279.000732,190.752762 
	C286.751190,187.025574 295.172333,184.627380 303.404175,181.982254 
	C315.945892,177.952286 328.461151,173.738968 341.213348,170.488968 
	C360.401459,165.598663 379.641144,160.645844 399.127502,157.269791 
	C416.488342,154.261978 433.936615,151.118683 451.829224,151.860825 
	C467.801514,152.523315 483.856232,151.355331 499.813629,152.177307 
	C516.600464,153.041992 533.334473,155.137924 550.054871,157.021469 
	C562.319885,158.403122 574.556396,160.117157 586.746216,162.056686 
	C593.890015,163.193344 600.899841,165.148682 608.001526,166.578918 
	C615.752686,168.139938 623.594849,169.281540 631.297791,171.041687 
	C640.065063,173.045074 648.745789,175.444199 657.420837,177.829056 
	C666.926147,180.442200 676.606506,182.635437 685.811096,186.079453 
	C703.142029,192.563995 720.222961,199.726135 737.337036,206.778275 
	C749.097168,211.624222 760.900818,216.415619 772.392578,221.849747 
	C788.098572,229.276688 803.875061,236.675339 818.981384,245.217743 
	C835.863831,254.764496 852.208435,265.304718 868.454102,275.922180 
	C882.389648,285.029877 896.114807,294.457001 908.449463,305.812500 
	C922.714233,318.944946 937.538147,331.468079 951.912537,344.484100 
	C960.429199,352.195953 968.939148,359.987030 976.712585,368.423798 
	C982.409119,374.606384 986.976135,381.844391 991.918396,388.704346 
	C1002.793518,403.798920 1013.587463,418.951996 1024.896606,434.754852 
	C1027.687500,430.854523 1030.162231,427.373291 1032.660156,423.908691 
	C1042.145752,410.752075 1051.515991,397.509674 1061.174561,384.481018 
	C1067.192261,376.363434 1072.938232,367.852600 1080.070923,360.796722 
	C1091.861084,349.133575 1104.653564,338.481537 1117.063721,327.448425 
	C1121.968140,323.088226 1127.258545,319.127777 1131.890015,314.501495 
	C1145.544678,300.862213 1160.930542,289.456238 1177.033325,278.983368 
	C1200.855835,263.489807 1224.395996,247.600662 1250.141235,235.196671 
	C1270.123291,225.569305 1289.965698,215.730560 1310.654297,207.670227 
	C1330.608521,199.896011 1350.332153,191.512192 1370.412354,184.086075 
	C1382.175049,179.735931 1394.318359,176.250504 1406.508667,173.268707 
	C1417.621094,170.550598 1429.047852,169.139130 1440.298584,166.958588 
	C1448.836304,165.303818 1457.277954,163.139755 1465.831421,161.582199 
	C1473.820435,160.127472 1481.894531,159.129028 1489.942261,158.010117 
	C1499.915649,156.623505 1509.900391,155.318329 1519.881348,153.986084 
	C1520.208252,153.942444 1520.547852,154.003845 1520.880249,153.988510 
	C1535.212158,153.327667 1549.537964,152.365585 1563.877319,152.078003 
	C1580.536987,151.743866 1597.215820,151.714554 1613.871704,152.133881 
	C1621.122192,152.316437 1628.336304,153.946762 1636.011963,154.956253 
M563.189148,1413.295776 
	C587.679565,1444.431641 615.104370,1472.709839 645.441650,1498.196045 
	C689.800964,1535.461792 738.821472,1565.005493 792.267761,1587.264526 
	C834.109924,1604.690918 877.459290,1616.835449 922.230713,1623.787354 
	C937.927734,1626.224854 953.712097,1629.418823 969.498779,1629.676147 
	C999.264404,1630.161133 1029.115601,1629.661377 1058.825562,1627.845093 
	C1079.489136,1626.581787 1100.155273,1623.357178 1120.508301,1619.402344 
	C1177.819946,1608.266113 1232.002441,1588.218506 1283.155396,1560.012329 
	C1340.615967,1528.328491 1391.099854,1487.892334 1434.507446,1438.748047 
	C1471.920166,1396.391113 1502.277710,1349.386963 1525.673584,1297.888184 
	C1556.133911,1230.839355 1572.691406,1160.454468 1575.914307,1086.992554 
	C1577.514771,1050.515137 1575.549805,1014.104248 1569.886353,977.989685 
	C1560.000244,914.948181 1540.432495,855.083069 1510.464355,798.672974 
	C1480.576660,742.414551 1442.482422,692.491943 1395.834961,649.041748 
	C1349.563843,605.942078 1297.498047,571.728271 1239.857666,545.844604 
	C1173.127563,515.879272 1103.069336,500.165070 1030.137573,497.137817 
	C1004.685913,496.081329 979.245605,497.135742 953.842041,499.701263 
	C927.810120,502.330292 902.088989,506.523315 876.683472,512.659119 
	C806.576965,529.590820 742.019958,558.848328 683.016785,600.315491 
	C636.474792,633.025024 595.813110,671.913940 561.043213,716.940125 
	C518.009644,772.667542 486.444977,834.293518 466.192841,901.719238 
	C452.823547,946.229797 445.144104,991.760193 443.170319,1038.136719 
	C442.336304,1057.732300 443.354584,1077.420166 443.874695,1097.056885 
	C444.532410,1121.887085 448.137543,1146.392212 452.844513,1170.744019 
	C470.134094,1260.192993 506.909454,1340.792725 563.189148,1413.295776 
z"/>
<path fill="#FFFFFF" opacity="1.000000" stroke="none" 
	d="
M562.988098,1413.003296 
	C506.909454,1340.792725 470.134094,1260.192993 452.844513,1170.744019 
	C448.137543,1146.392212 444.532410,1121.887085 443.874695,1097.056885 
	C443.354584,1077.420166 442.336304,1057.732300 443.170319,1038.136719 
	C445.144104,991.760193 452.823547,946.229797 466.192841,901.719238 
	C486.444977,834.293518 518.009644,772.667542 561.043213,716.940125 
	C595.813110,671.913940 636.474792,633.025024 683.016785,600.315491 
	C742.019958,558.848328 806.576965,529.590820 876.683472,512.659119 
	C902.088989,506.523315 927.810120,502.330292 953.842041,499.701263 
	C979.245605,497.135742 1004.685913,496.081329 1030.137573,497.137817 
	C1103.069336,500.165070 1173.127563,515.879272 1239.857666,545.844604 
	C1297.498047,571.728271 1349.563843,605.942078 1395.834961,649.041748 
	C1442.482422,692.491943 1480.576660,742.414551 1510.464355,798.672974 
	C1540.432495,855.083069 1560.000244,914.948181 1569.886353,977.989685 
	C1575.549805,1014.104248 1577.514771,1050.515137 1575.914307,1086.992554 
	C1572.691406,1160.454468 1556.133911,1230.839355 1525.673584,1297.888184 
	C1502.277710,1349.386963 1471.920166,1396.391113 1434.507446,1438.748047 
	C1391.099854,1487.892334 1340.615967,1528.328491 1283.155396,1560.012329 
	C1232.002441,1588.218506 1177.819946,1608.266113 1120.508301,1619.402344 
	C1100.155273,1623.357178 1079.489136,1626.581787 1058.825562,1627.845093 
	C1029.115601,1629.661377 999.264404,1630.161133 969.498779,1629.676147 
	C953.712097,1629.418823 937.927734,1626.224854 922.230713,1623.787354 
	C877.459290,1616.835449 834.109924,1604.690918 792.267761,1587.264526 
	C738.821472,1565.005493 689.800964,1535.461792 645.441650,1498.196045 
	C615.104370,1472.709839 587.679565,1444.431641 562.988098,1413.003296 
M932.868774,1152.377441 
	C922.107727,1169.403442 910.422852,1185.930298 903.260132,1204.957031 
	C897.455627,1220.375854 891.138977,1235.675293 886.579468,1251.469360 
	C881.797852,1268.033203 877.325195,1284.955078 875.428528,1302.021729 
	C872.365234,1329.584961 876.893738,1356.569580 888.714600,1381.856689 
	C893.344543,1391.761475 898.456543,1401.777832 905.176208,1410.303101 
	C922.378723,1432.128540 945.370911,1445.964233 971.740845,1454.122314 
	C988.817871,1459.405640 1006.362671,1461.476929 1024.289185,1462.401855 
	C1042.024414,1463.316895 1059.638672,1463.146484 1077.045410,1460.563599 
	C1118.481812,1454.415039 1158.069946,1441.829102 1195.533569,1423.055664 
	C1229.662354,1405.953491 1262.457397,1386.737305 1292.646729,1363.041748 
	C1314.158813,1346.156982 1333.668091,1327.360596 1350.921509,1306.402710 
	C1365.925903,1288.176758 1379.872559,1268.984375 1393.098511,1249.415894 
	C1406.756104,1229.208618 1417.709961,1207.595093 1420.726196,1182.706909 
	C1422.415771,1168.766724 1411.313110,1154.458374 1397.326050,1153.869629 
	C1382.540894,1153.247314 1371.991577,1161.906250 1369.354370,1178.090698 
	C1366.898438,1193.163208 1359.702515,1206.116821 1351.911865,1218.614502 
	C1343.825439,1231.586426 1334.139160,1243.555664 1325.260010,1256.039917 
	C1309.517212,1278.174316 1290.576904,1297.362061 1270.212402,1315.138672 
	C1253.621826,1329.621094 1235.216553,1341.639648 1216.386719,1353.038452 
	C1185.361694,1371.819580 1153.166626,1387.909302 1118.291016,1398.429688 
	C1090.865479,1406.702515 1063.138916,1412.315796 1034.332397,1411.075317 
	C1028.514648,1410.824829 1022.705688,1410.349243 1016.886719,1410.151367 
	C993.519409,1409.356079 972.450012,1402.134644 954.259583,1387.337769 
	C950.185852,1384.024048 946.436951,1379.981323 943.534973,1375.612305 
	C928.677307,1353.243408 924.956177,1328.259155 927.048645,1302.019897 
	C927.451538,1296.967651 929.478882,1294.002563 934.723938,1291.997681 
	C957.091492,1283.448242 979.735352,1275.353027 1001.317322,1265.074097 
	C1042.864136,1245.286377 1082.631348,1222.128418 1120.404419,1195.808960 
	C1141.150146,1181.353760 1161.445435,1166.149902 1181.057007,1150.193359 
	C1211.647339,1125.304077 1239.654541,1097.921875 1259.666504,1063.261597 
	C1273.824951,1038.739624 1281.509033,1012.705994 1281.011597,984.329163 
	C1280.851318,975.187500 1278.395752,966.760986 1272.311890,959.899170 
	C1252.673218,937.749451 1228.233643,928.352112 1199.219727,935.720764 
	C1169.470093,943.276367 1141.997314,956.684998 1116.397827,973.493774 
	C1093.310059,988.653503 1071.076538,1004.908691 1050.155029,1023.198853 
	C1025.902344,1044.401123 1002.641663,1066.473511 981.204224,1090.421753 
	C963.880554,1109.774292 947.139893,1129.681519 932.868774,1152.377441 
M969.850342,925.354675 
	C929.391602,956.888489 894.148682,993.545593 863.447815,1034.547607 
	C823.098450,1088.435425 792.431274,1147.506226 770.166504,1210.983765 
	C752.534973,1261.251709 740.973083,1312.953125 734.292480,1365.740234 
	C733.023926,1375.763672 737.016479,1384.577881 745.718079,1390.286987 
	C762.782043,1401.483032 783.502319,1390.542358 786.016235,1369.540161 
	C787.713745,1355.358765 789.686157,1341.179565 792.314331,1327.145264 
	C805.784180,1255.215942 829.792908,1187.062012 866.278442,1123.483154 
	C898.590759,1067.176392 939.233093,1017.703064 988.965759,975.926636 
	C1033.625610,938.411560 1083.355591,909.421753 1138.247070,889.510254 
	C1189.001709,871.099426 1241.357178,861.052307 1295.385986,859.933899 
	C1298.530273,859.868835 1301.709229,859.553528 1304.795654,858.958374 
	C1317.221558,856.562195 1325.916260,846.215698 1325.951050,834.006104 
	C1325.986206,821.696228 1317.608276,810.932861 1304.898315,809.192932 
	C1296.111938,807.990112 1286.962524,808.269043 1278.089478,809.101929 
	C1256.259888,811.151062 1234.337402,812.954224 1212.739258,816.570251 
	C1169.072144,823.880981 1127.005127,836.918579 1086.514771,854.946045 
	C1044.912598,873.468506 1006.198486,896.758545 969.850342,925.354675 
M734.529114,1008.044312 
	C734.205750,1008.626892 733.894348,1009.216431 733.557434,1009.791138 
	C700.813660,1065.642212 678.805786,1125.440918 667.369202,1189.167847 
	C663.676636,1209.743530 681.225769,1226.164795 700.662476,1219.818970 
	C712.464172,1215.965942 716.912964,1206.312012 718.883118,1195.068359 
	C726.633545,1150.836548 740.682129,1108.634766 760.486084,1068.408447 
	C795.433350,997.422180 844.506165,937.868042 907.073853,889.498047 
	C974.474609,837.391724 1050.108643,803.114441 1133.503662,785.965149 
	C1146.835938,783.223511 1160.338379,781.312256 1173.755127,778.976990 
	C1189.377075,776.257874 1198.615112,764.637695 1196.991333,749.814575 
	C1195.509521,736.287903 1183.665283,726.851868 1168.360718,728.005493 
	C1158.117188,728.777649 1147.907593,730.492676 1137.790894,732.368591 
	C1093.315552,740.615051 1050.152100,753.303772 1008.468506,770.966797 
	C940.546448,799.748291 879.903137,839.581604 826.889954,890.867859 
	C791.022705,925.566589 760.422424,964.507690 734.529114,1008.044312 
M694.176758,870.688965 
	C691.229431,874.514526 688.249634,878.315552 685.339844,882.169495 
	C654.647461,922.821655 629.341980,966.447266 612.100647,1014.551514 
	C607.455322,1027.512085 611.487671,1041.352539 622.046082,1047.552368 
	C636.922668,1056.287842 653.907349,1049.396484 660.449646,1032.540527 
	C666.166199,1017.812073 671.845886,1002.983276 678.890259,988.871948 
	C703.277466,940.018982 735.881836,896.957703 773.855408,857.941223 
	C805.095093,825.843628 839.465576,797.456421 877.311462,773.397278 
	C913.907166,750.132751 952.450928,731.138367 994.750671,720.558594 
	C1004.249512,718.182800 1014.059143,716.873352 1023.357727,713.916016 
	C1035.854248,709.941467 1042.445312,696.529175 1039.212280,683.777039 
	C1036.164429,671.755371 1023.362732,662.617859 1011.801086,664.389954 
	C987.875610,668.056946 964.633667,674.393860 942.044006,683.014709 
	C873.519287,709.165649 814.077026,749.626465 760.533325,799.152405 
	C736.785461,821.118286 714.700989,844.715698 694.176758,870.688965 
z"/>
<path fill="#84DEF7" opacity="1.000000" stroke="none" 
	d="
M933.047424,1152.062866 
	C947.139893,1129.681519 963.880554,1109.774292 981.204224,1090.421753 
	C1002.641663,1066.473511 1025.902344,1044.401123 1050.155029,1023.198853 
	C1071.076538,1004.908691 1093.310059,988.653503 1116.397827,973.493774 
	C1141.997314,956.684998 1169.470093,943.276367 1199.219727,935.720764 
	C1228.233643,928.352112 1252.673218,937.749451 1272.311890,959.899170 
	C1278.395752,966.760986 1280.851318,975.187500 1281.011597,984.329163 
	C1281.509033,1012.705994 1273.824951,1038.739624 1259.666504,1063.261597 
	C1239.654541,1097.921875 1211.647339,1125.304077 1181.057007,1150.193359 
	C1161.445435,1166.149902 1141.150146,1181.353760 1120.404419,1195.808960 
	C1082.631348,1222.128418 1042.864136,1245.286377 1001.317322,1265.074097 
	C979.735352,1275.353027 957.091492,1283.448242 934.723938,1291.997681 
	C929.478882,1294.002563 927.451538,1296.967651 927.048645,1302.019897 
	C924.956177,1328.259155 928.677307,1353.243408 943.534973,1375.612305 
	C946.436951,1379.981323 950.185852,1384.024048 954.259583,1387.337769 
	C972.450012,1402.134644 993.519409,1409.356079 1016.886719,1410.151367 
	C1022.705688,1410.349243 1028.514648,1410.824829 1034.332397,1411.075317 
	C1063.138916,1412.315796 1090.865479,1406.702515 1118.291016,1398.429688 
	C1153.166626,1387.909302 1185.361694,1371.819580 1216.386719,1353.038452 
	C1235.216553,1341.639648 1253.621826,1329.621094 1270.212402,1315.138672 
	C1290.576904,1297.362061 1309.517212,1278.174316 1325.260010,1256.039917 
	C1334.139160,1243.555664 1343.825439,1231.586426 1351.911865,1218.614502 
	C1359.702515,1206.116821 1366.898438,1193.163208 1369.354370,1178.090698 
	C1371.991577,1161.906250 1382.540894,1153.247314 1397.326050,1153.869629 
	C1411.313110,1154.458374 1422.415771,1168.766724 1420.726196,1182.706909 
	C1417.709961,1207.595093 1406.756104,1229.208618 1393.098511,1249.415894 
	C1379.872559,1268.984375 1365.925903,1288.176758 1350.921509,1306.402710 
	C1333.668091,1327.360596 1314.158813,1346.156982 1292.646729,1363.041748 
	C1262.457397,1386.737305 1229.662354,1405.953491 1195.533569,1423.055664 
	C1158.069946,1441.829102 1118.481812,1454.415039 1077.045410,1460.563599 
	C1059.638672,1463.146484 1042.024414,1463.316895 1024.289185,1462.401855 
	C1006.362671,1461.476929 988.817871,1459.405640 971.740845,1454.122314 
	C945.370911,1445.964233 922.378723,1432.128540 905.176208,1410.303101 
	C898.456543,1401.777832 893.344543,1391.761475 888.714600,1381.856689 
	C876.893738,1356.569580 872.365234,1329.584961 875.428528,1302.021729 
	C877.325195,1284.955078 881.797852,1268.033203 886.579468,1251.469360 
	C891.138977,1235.675293 897.455627,1220.375854 903.260132,1204.957031 
	C910.422852,1185.930298 922.107727,1169.403442 933.047424,1152.062866 
M977.258606,1219.843384 
	C1018.899963,1199.129272 1059.040161,1175.867676 1097.347412,1149.452026 
	C1133.634888,1124.429321 1167.954712,1097.124268 1196.895386,1063.630493 
	C1214.185059,1043.620483 1226.609985,1021.205627 1229.516846,994.316406 
	C1229.883179,990.928040 1229.011353,989.170654 1226.074585,987.558655 
	C1220.929565,984.734375 1215.693115,984.139832 1210.205444,985.855469 
	C1183.810059,994.107361 1159.497681,1006.529480 1136.364502,1021.658936 
	C1113.158203,1036.836182 1091.796753,1054.382935 1071.287598,1072.787720 
	C1050.652954,1091.304810 1031.166626,1111.098145 1012.925293,1132.182373 
	C991.671448,1156.748779 973.247498,1183.097778 957.111145,1211.141357 
	C953.468933,1217.471313 950.980225,1224.465088 947.449890,1232.284058 
	C958.166565,1227.804810 967.358459,1223.962891 977.258606,1219.843384 
z"/>
<path fill="#84DEF7" opacity="1.000000" stroke="none" 
	d="
M970.130066,925.135010 
	C1006.198486,896.758545 1044.912598,873.468506 1086.514771,854.946045 
	C1127.005127,836.918579 1169.072144,823.880981 1212.739258,816.570251 
	C1234.337402,812.954224 1256.259888,811.151062 1278.089478,809.101929 
	C1286.962524,808.269043 1296.111938,807.990112 1304.898315,809.192932 
	C1317.608276,810.932861 1325.986206,821.696228 1325.951050,834.006104 
	C1325.916260,846.215698 1317.221558,856.562195 1304.795654,858.958374 
	C1301.709229,859.553528 1298.530273,859.868835 1295.385986,859.933899 
	C1241.357178,861.052307 1189.001709,871.099426 1138.247070,889.510254 
	C1083.355591,909.421753 1033.625610,938.411560 988.965759,975.926636 
	C939.233093,1017.703064 898.590759,1067.176392 866.278442,1123.483154 
	C829.792908,1187.062012 805.784180,1255.215942 792.314331,1327.145264 
	C789.686157,1341.179565 787.713745,1355.358765 786.016235,1369.540161 
	C783.502319,1390.542358 762.782043,1401.483032 745.718079,1390.286987 
	C737.016479,1384.577881 733.023926,1375.763672 734.292480,1365.740234 
	C740.973083,1312.953125 752.534973,1261.251709 770.166504,1210.983765 
	C792.431274,1147.506226 823.098450,1088.435425 863.447815,1034.547607 
	C894.148682,993.545593 929.391602,956.888489 970.130066,925.135010 
z"/>
<path fill="#84DEF7" opacity="1.000000" stroke="none" 
	d="
M734.711792,1007.727417 
	C760.422424,964.507690 791.022705,925.566589 826.889954,890.867859 
	C879.903137,839.581604 940.546448,799.748291 1008.468506,770.966797 
	C1050.152100,753.303772 1093.315552,740.615051 1137.790894,732.368591 
	C1147.907593,730.492676 1158.117188,728.777649 1168.360718,728.005493 
	C1183.665283,726.851868 1195.509521,736.287903 1196.991333,749.814575 
	C1198.615112,764.637695 1189.377075,776.257874 1173.755127,778.976990 
	C1160.338379,781.312256 1146.835938,783.223511 1133.503662,785.965149 
	C1050.108643,803.114441 974.474609,837.391724 907.073853,889.498047 
	C844.506165,937.868042 795.433350,997.422180 760.486084,1068.408447 
	C740.682129,1108.634766 726.633545,1150.836548 718.883118,1195.068359 
	C716.912964,1206.312012 712.464172,1215.965942 700.662476,1219.818970 
	C681.225769,1226.164795 663.676636,1209.743530 667.369202,1189.167847 
	C678.805786,1125.440918 700.813660,1065.642212 733.557434,1009.791138 
	C733.894348,1009.216431 734.205750,1008.626892 734.711792,1007.727417 
z"/>
<path fill="#84DEF7" opacity="1.000000" stroke="none" 
	d="
M694.392273,870.404297 
	C714.700989,844.715698 736.785461,821.118286 760.533325,799.152405 
	C814.077026,749.626465 873.519287,709.165649 942.044006,683.014709 
	C964.633667,674.393860 987.875610,668.056946 1011.801086,664.389954 
	C1023.362732,662.617859 1036.164429,671.755371 1039.212280,683.777039 
	C1042.445312,696.529175 1035.854248,709.941467 1023.357727,713.916016 
	C1014.059143,716.873352 1004.249512,718.182800 994.750671,720.558594 
	C952.450928,731.138367 913.907166,750.132751 877.311462,773.397278 
	C839.465576,797.456421 805.095093,825.843628 773.855408,857.941223 
	C735.881836,896.957703 703.277466,940.018982 678.890259,988.871948 
	C671.845886,1002.983276 666.166199,1017.812073 660.449646,1032.540527 
	C653.907349,1049.396484 636.922668,1056.287842 622.046082,1047.552368 
	C611.487671,1041.352539 607.455322,1027.512085 612.100647,1014.551514 
	C629.341980,966.447266 654.647461,922.821655 685.339844,882.169495 
	C688.249634,878.315552 691.229431,874.514526 694.392273,870.404297 
z"/>
<path fill="#FEFFFF" opacity="1.000000" stroke="none" 
	d="
M976.904541,1219.982178 
	C967.358459,1223.962891 958.166565,1227.804810 947.449890,1232.284058 
	C950.980225,1224.465088 953.468933,1217.471313 957.111145,1211.141357 
	C973.247498,1183.097778 991.671448,1156.748779 1012.925293,1132.182373 
	C1031.166626,1111.098145 1050.652954,1091.304810 1071.287598,1072.787720 
	C1091.796753,1054.382935 1113.158203,1036.836182 1136.364502,1021.658936 
	C1159.497681,1006.529480 1183.810059,994.107361 1210.205444,985.855469 
	C1215.693115,984.139832 1220.929565,984.734375 1226.074585,987.558655 
	C1229.011353,989.170654 1229.883179,990.928040 1229.516846,994.316406 
	C1226.609985,1021.205627 1214.185059,1043.620483 1196.895386,1063.630493 
	C1167.954712,1097.124268 1133.634888,1124.429321 1097.347412,1149.452026 
	C1059.040161,1175.867676 1018.899963,1199.129272 976.904541,1219.982178 
z"/>
</svg>